<svg id="wave" class="rotate-180" viewBox="0 0 1440 130" version="1.1" xmlns="http://www.w3.org/2000/svg">
<defs>
<linearGradient id="sw-gradient-0" x1="0" x2="0" y1="1" y2="0">
<stop stop-color="rgba(1, 126, 127, 1)" offset="0%">
</stop>
<stop stop-color="rgba(70, 181, 155, 1)" offset="100%">
</stop>
</linearGradient>
</defs>
<path fill="url(#sw-gradient-0)" d="M0,13L40,13C80,13,160,13,240,26C320,39,400,65,480,71.5C560,78,640,65,720,49.8C800,35,880,17,960,19.5C1040,22,1120,43,1200,43.3C1280,43,1360,22,1440,19.5C1520,17,1600,35,1680,43.3C1760,52,1840,52,1920,62.8C2000,74,2080,95,2160,97.5C2240,100,2320,82,2400,71.5C2480,61,2560,56,2640,58.5C2720,61,2800,69,2880,78C2960,87,3040,95,3120,93.2C3200,91,3280,78,3360,78C3440,78,3520,91,3600,80.2C3680,69,3760,35,3840,36.8C3920,39,4000,78,4080,78C4160,78,4240,39,4320,32.5C4400,26,4480,52,4560,65C4640,78,4720,78,4800,84.5C4880,91,4960,104,5040,95.3C5120,87,5200,56,5280,43.3C5360,30,5440,35,5520,32.5C5600,30,5680,22,5720,17.3L5760,13L5760,130L5720,130C5680,130,5600,130,5520,130C5440,130,5360,130,5280,130C5200,130,5120,130,5040,130C4960,130,4880,130,4800,130C4720,130,4640,130,4560,130C4480,130,4400,130,4320,130C4240,130,4160,130,4080,130C4000,130,3920,130,3840,130C3760,130,3680,130,3600,130C3520,130,3440,130,3360,130C3280,130,3200,130,3120,130C3040,130,2960,130,2880,130C2800,130,2720,130,2640,130C2560,130,2480,130,2400,130C2320,130,2240,130,2160,130C2080,130,2000,130,1920,130C1840,130,1760,130,1680,130C1600,130,1520,130,1440,130C1360,130,1280,130,1200,130C1120,130,1040,130,960,130C880,130,800,130,720,130C640,130,560,130,480,130C400,130,320,130,240,130C160,130,80,130,40,130L0,130Z">
</path>
</svg>
